<?xml version="1.0" encoding="utf-8"?>
<!-- Generator: Adobe Illustrator 16.0.3, SVG Export Plug-In . SVG Version: 6.00 Build 0)  -->
<!DOCTYPE svg PUBLIC "-//W3C//DTD SVG 1.1//EN" "http://www.w3.org/Graphics/SVG/1.1/DTD/svg11.dtd">
<svg version="1.1" id="Layer_1" xmlns="http://www.w3.org/2000/svg" xmlns:xlink="http://www.w3.org/1999/xlink" x="0px" y="0px"
	 width="658.57px" height="237.667px" viewBox="0 0 658.57 237.667" enable-background="new 0 0 658.57 237.667"
	 xml:space="preserve">
<g>
	<rect y="8.836" fill="none" width="625" height="170.455"/>
	<path fill="#393D3F" d="M115.398,107.836c0,22.8-19.8,43.399-54.799,43.399c-23.2,0-45.199-8-53.999-28.399
		c-1.6-3.8,0.6-8.2,4.6-9.6l18.2-5.6c3.2-1,6.6,0.2,8.4,3.2c3.4,6,10.6,11.4,22.4,11.4s20.399-4.6,20.399-13.8
		c0-10.6-13.6-12-29.399-16c-28-7-40.799-19.8-40.799-43.2c0-27,22.399-42.999,51.399-42.999c21.2,0,39.399,9.8,47.2,27.199
		c1.8,4-0.4,8.8-4.8,9.8l-18.2,4.6c-3,0.6-6.2-0.6-7.8-3.2c-2.8-5-8.4-9-17.8-9c-10,0-16.8,5.4-16.8,13.4c0,11,16.8,13.6,27.6,16.6
		C105.398,75.237,115.398,85.837,115.398,107.836z"/>
	<path fill="#393D3F" d="M227.397,85.437v56.199c0,4-3.2,7.2-7,7.2h-18.2c-4,0-7.2-3.2-7.2-7.2V94.237c0-11.8-7.2-17.4-16.2-17.4
		c-9.6,0-16.2,6-16.2,17.4v47.399c0,4-3.2,7.2-7.2,7.2h-18.2c-4,0-7-3.2-7-7.2V16.038c0-4,3-7.2,7-7.2h18.2c4,0,7.2,3.2,7.2,7.2
		v40.599c5.6-6.6,14.4-11.6,27.6-11.6C215.597,45.038,227.397,65.037,227.397,85.437z"/>
	<path fill="#393D3F" d="M326.194,47.438h20c4,0,7.2,3.2,7.2,7.2v86.999c0,4-3.2,7.2-7.2,7.2h-20c-3,0-5.4-2.4-5.4-5.4v-4.6
		c-6,7.4-15,12.4-28.6,12.4c-31.6,0-48.599-26.6-48.599-52.999c0-26.6,17-53.199,48.599-53.199c13.6,0,22.6,5,28.6,12.4v-4.6
		C320.794,49.837,323.194,47.438,326.194,47.438z M319.794,98.237c0-13.6-9.6-21.8-21.8-21.8c-13.399,0-21.6,9.2-21.6,21.8
		c0,12.4,8.2,21.6,21.6,21.6C310.195,119.836,319.794,111.637,319.794,98.237z"/>
	<path fill="#393D3F" d="M433.594,45.638c3.2-0.6,6.4,1.8,6.4,5.2v23c0,3.2-2.8,5.6-5.8,5.4c-23.6-1.6-26.399,13.6-26.399,29.6v32.8
		c0,4-3.2,7.2-7,7.2h-18.4c-3.8,0-7-3.2-7-7.2V54.637c0-4,3.2-7.2,7-7.2h18.4c3.8,0,7,3.2,7,7.2v8.2
		C413.795,53.438,423.595,47.438,433.594,45.638z"/>
	<path fill="#393D3F" d="M552.793,100.836c0,4-3.2,7.2-7,7.2h-66.599c3.4,11.8,13.2,17.2,25.6,17.2c8,0,14.2-3,18-6.2
		c1.8-1.6,4.2-1.8,6.2-0.6l14.2,8.4c2.8,1.8,3.4,5.6,1.4,8.2c-8.8,9.8-22.799,16.2-39.799,16.2c-34.399,0-56.999-21.6-56.999-52.999
		c0-30,23.2-53.199,52.199-53.199C528.394,45.038,553.393,63.037,552.793,100.836z M523.194,88.437c-2.6-12-10.8-17.4-22-17.4
		c-10.4,0-18.799,6.2-21.799,17.4H523.194z"/>
</g>
<g>
	<rect x="241.636" y="170.655" fill="none" width="488.637" height="63.636"/>
	<path fill="#393D3F" d="M288.584,172.682l-18.375,30.824v17.625c0,1.125-0.9,2.025-2.025,2.025h-3.45
		c-1.125,0-2.025-0.9-2.025-2.025v-17.625l-18.375-30.824c-0.525-0.9,0.075-2.025,1.125-2.025h4.2c1.2,0,2.325,0.6,2.85,1.65
		l13.95,24.449l13.949-24.449c0.6-1.05,1.65-1.65,2.85-1.65h4.2C288.509,170.657,289.109,171.782,288.584,172.682z"/>
	<path fill="#393D3F" d="M325.559,204.181c0,10.949-8.475,19.949-19.949,19.949s-19.949-9-19.949-19.949
		c0-10.95,8.475-19.949,19.949-19.949S325.559,193.231,325.559,204.181z M318.584,204.181c0-7.8-5.475-13.5-12.974-13.5
		c-7.5,0-12.899,5.7-12.899,13.5c0,7.725,5.399,13.424,12.899,13.424C313.109,217.605,318.584,211.905,318.584,204.181z"/>
	<path fill="#393D3F" d="M364.259,185.131c1.05,0,1.95,0.9,1.95,2.025v33.974c0,1.125-0.9,2.025-1.95,2.025h-2.85
		c-1.125,0-2.025-0.9-2.025-2.025v-3.3c-2.25,3.45-5.925,6.225-11.7,6.225c-8.549,0-14.624-7.05-14.624-15.149v-21.749
		c0-1.125,0.9-2.025,2.025-2.025h2.85c1.05,0,1.95,0.9,1.95,2.025v19.799c0,5.325,2.325,10.649,9.449,10.649
		c7.2,0,10.05-6.15,10.05-10.649v-19.799c0-1.125,0.9-2.025,2.025-2.025H364.259z"/>
	<path fill="#393D3F" d="M394.034,184.306c0.825-0.075,1.5,0.525,1.5,1.275v4.875c0,0.75-0.675,1.35-1.425,1.35
		c-9.975-0.525-11.324,7.575-11.324,14.324v15c0,1.125-0.9,2.025-1.95,2.025h-2.85c-1.125,0-2.025-0.9-2.025-2.025v-33.974
		c0-1.125,0.9-2.025,2.025-2.025h2.85c1.05,0,1.95,0.9,1.95,2.025v4.575C385.109,187.081,389.609,184.681,394.034,184.306z"/>
	<path fill="#393D3F" d="M459.281,187.756c0,9.6-7.05,17.174-18.899,17.174h-9.3v16.199c0,1.125-0.825,2.025-1.95,2.025h-3.524
		c-1.125,0-2.025-0.9-2.025-2.025v-48.448c0-1.125,0.9-2.025,2.025-2.025h14.774C452.231,170.657,459.281,178.157,459.281,187.756z
		 M451.631,187.756c0-6.15-4.2-10.275-11.25-10.275h-9.3v20.549h9.3C447.431,198.031,451.631,193.906,451.631,187.756z"/>
	<path fill="#393D3F" d="M485.231,184.306c0.825-0.075,1.5,0.525,1.5,1.275v4.875c0,0.75-0.675,1.35-1.425,1.35
		c-9.975-0.525-11.324,7.575-11.324,14.324v15c0,1.125-0.9,2.025-1.95,2.025h-2.85c-1.125,0-2.025-0.9-2.025-2.025v-33.974
		c0-1.125,0.9-2.025,2.025-2.025h2.85c1.05,0,1.95,0.9,1.95,2.025v4.575C476.307,187.081,480.807,184.681,485.231,184.306z"/>
	<path fill="#393D3F" d="M530.306,204.181c0,10.949-8.475,19.949-19.949,19.949s-19.949-9-19.949-19.949
		c0-10.95,8.475-19.949,19.949-19.949S530.306,193.231,530.306,204.181z M523.331,204.181c0-7.8-5.475-13.5-12.974-13.5
		c-7.5,0-12.899,5.7-12.899,13.5c0,7.725,5.399,13.424,12.899,13.424C517.856,217.605,523.331,211.905,523.331,204.181z"/>
	<path fill="#393D3F" d="M537.881,187.156c0-1.125,0.9-2.025,2.025-2.025h2.85c1.05,0,1.95,0.9,1.95,2.025v36.673
		c0,7.125-3.9,13.125-13.125,13.125c-0.375,0-0.675,0-0.975,0c-0.9,0-1.65-0.75-1.65-1.65v-2.85c0-0.9,0.675-1.65,1.575-1.65
		c5.925-0.375,7.35-3.6,7.35-8.325V187.156z M537.432,174.482c0-2.175,1.725-3.9,3.899-3.9c2.175,0,3.9,1.725,3.9,3.9
		c0,2.175-1.725,3.9-3.9,3.9C539.156,178.382,537.432,176.657,537.432,174.482z"/>
	<path fill="#393D3F" d="M589.854,204.48c0,1.425-1.2,2.625-2.625,2.625h-27.824c1.125,6.225,5.7,10.5,13.199,10.5
		c3.45,0,6.675-1.2,8.925-3.225c0.675-0.6,1.65-0.675,2.4-0.15l2.25,1.425c1.125,0.675,1.275,2.175,0.45,3.075
		c-3.45,3.45-8.325,5.325-14.024,5.325c-12.599,0-20.399-8.925-20.399-19.874c0-11.025,8.024-19.949,19.199-19.949
		C581.079,184.231,590.229,191.881,589.854,204.48z M582.729,201.181c-0.9-6.375-4.875-10.5-11.324-10.5c-6.525,0-10.95,4.2-12,10.5
		H582.729z"/>
	<path fill="#393D3F" d="M625.179,212.88c0.6-0.75,1.725-0.975,2.55-0.525l2.325,1.275c1.05,0.6,1.35,2.025,0.6,3
		c-3.525,4.5-9,7.425-15.524,7.425c-11.475,0-19.949-8.925-19.949-19.874c0-11.025,8.475-19.949,19.949-19.949
		c6.524,0,12,2.925,15.524,7.425c0.75,0.975,0.45,2.4-0.6,3l-2.325,1.275c-0.825,0.45-1.95,0.225-2.55-0.525
		c-2.25-2.925-5.85-4.725-10.049-4.725c-7.5,0-12.899,5.7-12.899,13.5c0,7.725,5.399,13.424,12.899,13.424
		C619.33,217.605,622.929,215.805,625.179,212.88z"/>
	<path fill="#393D3F" d="M655.254,191.656h-6.825v16.649c0,5.4,0.15,9,6,9c0.375,0,0.75,0,1.05,0c0.975-0.075,1.8,0.675,1.8,1.65
		v2.775c0,0.9-0.675,1.575-1.5,1.65c-0.675,0.075-1.425,0.15-2.175,0.15c-8.325,0-12-4.425-12-12.825v-19.049h-4.5
		c-1.125,0-2.025-0.9-2.025-2.025v-2.475c0-1.125,0.9-2.025,2.025-2.025h4.5v-6c0-1.05,0.9-1.95,2.025-1.95h2.775
		c1.125,0,2.025,0.9,2.025,1.95v6h6.825c1.125,0,2.025,0.9,2.025,2.025v2.475C657.279,190.756,656.379,191.656,655.254,191.656z"/>
</g>
<circle fill="none" stroke="#393D3F" stroke-width="17" stroke-miterlimit="10" cx="-546.003" cy="202.687" r="24.419"/>
<circle fill="none" stroke="#393D3F" stroke-width="17" stroke-miterlimit="10" cx="-246.295" cy="171.641" r="29.829"/>
<circle fill="none" stroke="#393D3F" stroke-width="17" stroke-miterlimit="10" cx="-126.002" cy="47.238" r="35.421"/>
<line fill="none" stroke="#393D3F" stroke-width="17" stroke-miterlimit="10" x1="-527.613" y1="186.63" x2="-436.709" y2="104.497"/>
<line fill="none" stroke="#393D3F" stroke-width="17" stroke-miterlimit="10" x1="-391.182" y1="98.777" x2="-272.986" y2="158.324"/>
<line fill="none" stroke="#393D3F" stroke-width="17" stroke-miterlimit="10" x1="-224.049" y1="151.776" x2="-150.148" y2="73.144"/>
<circle fill="none" stroke="#393D3F" stroke-width="17" stroke-miterlimit="10" cx="-415.591" cy="88.567" r="26.453"/>
<g>
</g>
<g>
</g>
<g>
</g>
<g>
</g>
<g>
</g>
<g>
</g>
</svg>
